<?xml version="1.0" encoding="UTF-8"?>
<svg xmlns="http://www.w3.org/2000/svg" xmlns:xlink="http://www.w3.org/1999/xlink" width="600" height="500" viewBox="0 0 600 500">
<path fill-rule="nonzero" fill="rgb(58.431373%, 34.509804%, 69.803922%)" fill-opacity="0.15" stroke-width="6" stroke-linecap="butt" stroke-linejoin="miter" stroke="rgb(58.431373%, 34.509804%, 69.803922%)" stroke-opacity="1" stroke-miterlimit="10" d="M 0 250 L 75.628906 250 L 80.671875 249.996094 L 85.714844 249.996094 L 90.757812 249.992188 L 95.796875 249.984375 L 100.839844 249.972656 L 105.882812 249.949219 L 110.925781 249.917969 L 115.964844 249.867188 L 121.007812 249.792969 L 126.050781 249.683594 L 131.09375 249.523438 L 136.132812 249.300781 L 141.175781 248.992188 L 146.21875 248.570312 L 151.261719 248.011719 L 156.300781 247.277344 L 161.34375 246.332031 L 166.386719 245.132812 L 171.429688 243.632812 L 176.46875 241.78125 L 181.511719 239.527344 L 186.554688 236.820312 L 191.597656 233.605469 L 196.636719 229.839844 L 201.679688 225.472656 L 206.722656 220.480469 L 211.765625 214.832031 L 216.808594 208.523438 L 221.847656 201.5625 L 226.890625 193.976562 L 231.933594 185.824219 L 236.976562 177.179688 L 242.015625 168.152344 L 247.058594 158.871094 L 252.101562 149.496094 L 257.144531 140.207031 L 262.183594 131.203125 L 267.226562 122.691406 L 272.269531 114.894531 L 277.3125 108.011719 L 282.351562 102.242188 L 287.394531 97.75 L 292.4375 94.675781 L 297.480469 93.117188 L 302.519531 93.117188 L 307.5625 94.675781 L 312.605469 97.75 L 317.648438 102.242188 L 322.6875 108.011719 L 327.730469 114.894531 L 332.773438 122.691406 L 337.816406 131.203125 L 342.855469 140.207031 L 347.898438 149.496094 L 352.941406 158.871094 L 357.984375 168.152344 L 363.023438 177.179688 L 368.066406 185.824219 L 373.109375 193.976562 L 378.152344 201.5625 L 383.191406 208.523438 L 388.234375 214.832031 L 393.277344 220.480469 L 398.320312 225.472656 L 403.363281 229.839844 L 408.402344 233.605469 L 413.445312 236.820312 L 418.488281 239.527344 L 423.53125 241.78125 L 428.570312 243.632812 L 433.613281 245.132812 L 438.65625 246.332031 L 443.699219 247.277344 L 448.738281 248.011719 L 453.78125 248.570312 L 458.824219 248.992188 L 463.867188 249.300781 L 468.90625 249.523438 L 473.949219 249.683594 L 478.992188 249.792969 L 484.035156 249.867188 L 489.074219 249.917969 L 494.117188 249.949219 L 499.160156 249.972656 L 504.203125 249.984375 L 509.242188 249.992188 L 514.285156 249.996094 L 519.328125 249.996094 L 524.371094 250 L 600 250 "/>
<path fill="none" stroke-width="6" stroke-linecap="round" stroke-linejoin="miter" stroke="rgb(21.960784%, 59.607843%, 14.901961%)" stroke-opacity="1" stroke-miterlimit="10" d="M 0 350 L 96.96875 350 L 103.03125 349.996094 L 109.089844 349.992188 L 115.152344 349.988281 L 121.210938 349.976562 L 127.273438 349.960938 L 133.332031 349.933594 L 139.394531 349.890625 L 145.453125 349.824219 L 151.515625 349.722656 L 157.574219 349.574219 L 163.636719 349.359375 L 169.695312 349.058594 L 175.757812 348.644531 L 181.816406 348.085938 L 187.878906 347.34375 L 193.9375 346.378906 L 200 345.136719 L 206.0625 343.570312 L 212.121094 341.625 L 218.183594 339.238281 L 224.242188 336.355469 L 230.304688 332.921875 L 236.363281 328.886719 L 242.425781 324.210938 L 248.484375 318.871094 L 254.546875 312.84375 L 260.605469 306.144531 L 266.667969 298.792969 L 272.726562 290.84375 L 278.789062 282.363281 L 284.847656 273.445312 L 290.910156 264.203125 L 296.96875 254.757812 L 303.03125 245.242188 L 309.089844 235.796875 L 315.152344 226.554688 L 321.210938 217.636719 L 327.273438 209.15625 L 333.332031 201.207031 L 339.394531 193.855469 L 345.453125 187.15625 L 351.515625 181.128906 L 357.574219 175.789062 L 363.636719 171.113281 L 369.695312 167.078125 L 375.757812 163.644531 L 381.816406 160.761719 L 387.878906 158.375 L 393.9375 156.429688 L 400 154.863281 L 406.0625 153.621094 L 412.121094 152.65625 L 418.183594 151.914062 L 424.242188 151.355469 L 430.304688 150.941406 L 436.363281 150.640625 L 442.425781 150.425781 L 448.484375 150.277344 L 454.546875 150.175781 L 460.605469 150.109375 L 466.667969 150.066406 L 472.726562 150.039062 L 478.789062 150.023438 L 484.847656 150.011719 L 490.910156 150.007812 L 496.96875 150.003906 L 503.03125 150 L 600 150 "/>
<path fill-rule="nonzero" fill="rgb(79.607843%, 23.529412%, 20%)" fill-opacity="1" d="M 148 349.886719 C 148 354.304688 144.417969 357.886719 140 357.886719 C 135.582031 357.886719 132 354.304688 132 349.886719 C 132 345.46875 135.582031 341.886719 140 341.886719 C 144.417969 341.886719 148 345.46875 148 349.886719 Z M 148 349.886719 "/>
<path fill-rule="nonzero" fill="rgb(79.607843%, 23.529412%, 20%)" fill-opacity="1" d="M 228 338.425781 C 228 342.84375 224.417969 346.425781 220 346.425781 C 215.582031 346.425781 212 342.84375 212 338.425781 C 212 334.007812 215.582031 330.425781 220 330.425781 C 224.417969 330.425781 228 334.007812 228 338.425781 Z M 228 338.425781 "/>
<path fill-rule="nonzero" fill="rgb(79.607843%, 23.529412%, 20%)" fill-opacity="1" d="M 308 250 C 308 254.417969 304.417969 258 300 258 C 295.582031 258 292 254.417969 292 250 C 292 245.582031 295.582031 242 300 242 C 304.417969 242 308 245.582031 308 250 Z M 308 250 "/>
<path fill-rule="nonzero" fill="rgb(79.607843%, 23.529412%, 20%)" fill-opacity="1" d="M 388 161.574219 C 388 165.992188 384.417969 169.574219 380 169.574219 C 375.582031 169.574219 372 165.992188 372 161.574219 C 372 157.15625 375.582031 153.574219 380 153.574219 C 384.417969 153.574219 388 157.15625 388 161.574219 Z M 388 161.574219 "/>
<path fill-rule="nonzero" fill="rgb(79.607843%, 23.529412%, 20%)" fill-opacity="1" d="M 468 150.113281 C 468 154.53125 464.417969 158.113281 460 158.113281 C 455.582031 158.113281 452 154.53125 452 150.113281 C 452 145.695312 455.582031 142.113281 460 142.113281 C 464.417969 142.113281 468 145.695312 468 150.113281 Z M 468 150.113281 "/>
</svg>
